<svg t="1675934106217" class="icon" viewBox="0 0 1024 1024" version="1.1" xmlns="http://www.w3.org/2000/svg" p-id="6135" width="600" height="600"><path d="M644.0448 211.3536c0 22.784 18.5344 41.2672 41.2672 41.2672h149.2992c-3.328-90.1632-77.4144-162.304-168.3968-162.304h-22.1696v121.0368z" fill="#FF5757" p-id="6136"></path><path d="M685.3632 314.112c-56.6272 0-102.7072-46.08-102.7072-102.7072V90.368H305.9712c-93.0816 0-168.5504 75.4688-168.5504 168.5504v469.9136c0 93.0816 75.4688 168.5504 168.5504 168.5504h125.8496c23.04 0 45.312-8.2432 62.8224-23.1936l306.3296-261.9904c21.4528-18.3808 33.8432-45.2096 33.8432-73.472V314.112h-149.4528z m-76.6976 336.7424H363.52c-16.9472 0-30.72-13.7728-30.72-30.72s13.7728-30.72 30.72-30.72h245.1456c16.9472 0 30.72 13.7728 30.72 30.72s-13.7216 30.72-30.72 30.72z m0-193.7408H363.52c-16.9472 0-30.72-13.7728-30.72-30.72s13.7728-30.72 30.72-30.72h245.1456c16.9472 0 30.72 13.7728 30.72 30.72s-13.7216 30.72-30.72 30.72zM890.6752 688.0256l-22.1696-26.0096a32.89088 32.89088 0 0 0-46.2848-3.6864l-214.4768 182.9376c-3.3792 2.9184-6.144 6.4512-8.1408 10.4448l-25.2416 51.2c-8.192 16.6912 6.1952 35.5328 24.4736 32l60.0576-11.6736c5.5296-1.0752 10.7008-3.584 15.0016-7.2704l213.0432-181.76c13.824-11.6736 15.5136-32.4096 3.7376-46.1824z" fill="#FF5757" p-id="6137"></path></svg>