<?xml version="1.0" standalone="no"?><!DOCTYPE svg PUBLIC "-//W3C//DTD SVG 1.1//EN" "http://www.w3.org/Graphics/SVG/1.1/DTD/svg11.dtd"><svg t="1678525558859" class="icon" viewBox="0 0 1024 1024" version="1.1" xmlns="http://www.w3.org/2000/svg" p-id="5856" xmlns:xlink="http://www.w3.org/1999/xlink" width="300" height="300"><path d="M512 512m-440 0a440 440 0 1 0 880 0 440 440 0 1 0-880 0Z" fill="#BAE4FA" p-id="5857"></path><path d="M545.5 126.1c-3.8 0-7.6 0.1-11.4 0.2-196.8 6-354.5 167.5-354.5 365.7 0 198.3 157.7 359.7 354.5 365.7 3.8 0.1 7.6 0.2 11.4 0.2 59.7 0 23.5-42.4 90-110.7 64.2-65.9 275.9-26.8 275.9-255.2 0-202-163.9-365.9-365.9-365.9zM465.4 707c-37.9 0-68.6-30.7-68.6-68.6s30.7-68.6 68.6-68.6 68.6 30.7 68.6 68.6-30.7 68.6-68.6 68.6z" fill="#F9F7FC" p-id="5858"></path><path d="M702.2 248.3c-29.4 0-53.2 23.8-53.2 53.2s23.8 53.2 53.2 53.2 53.2-23.8 53.2-53.2c0-29.4-23.8-53.2-53.2-53.2z" fill="#E61E14" p-id="5859"></path><path d="M911.4 492c0 228.5-211.7 189.3-275.9 255.2-66.5 68.3-30.2 110.7-90 110.7-3.8 0-7.6-0.1-11.4-0.2V126.3c3.8-0.1 7.6-0.2 11.4-0.2 202 0 365.9 163.9 365.9 365.9z" fill="#DCDAEB" p-id="5860"></path><path d="M859.8 354.6l-72.6-40.2-46.2-69c64-60.4 148.4-119.6 187-84.1s-13.4 124.5-68.2 193.3z" fill="#767DD4" p-id="5861"></path><path d="M859.8 354.6l-72.6-40.2L928 161.3c38.5 35.5-13.4 124.5-68.2 193.3z" fill="#5E6ACA" p-id="5862"></path><path d="M804.4 417.9l-73.6-42.3-48.3-69.8c18.8-21.7 38.6-42 58.4-60.5 26.7 6 52.6 18.4 74.3 38.4s36.3 44.7 44.5 70.9c-19.8 25.3-37.8 45.5-55.3 63.3z" fill="#9DD4A9" p-id="5863"></path><path d="M804.4 417.9l-73.6-42.3 84.5-91.9c21.7 20 36.3 44.7 44.5 70.9-19.9 25.3-37.9 45.5-55.4 63.3z" fill="#84BFA7" p-id="5864"></path><path d="M804.4 417.9C757.5 465.8 638.9 573.8 590 528.7c-49-45.1 48.7-172.2 92.6-222.9 27.6 6.2 54.1 18.6 76.4 39.2 22.3 20.6 36.9 45.9 45.4 72.9z" fill="#534A9A" p-id="5865"></path><path d="M804.4 417.9C757.5 465.8 638.9 573.8 590 528.7L759 345c22.3 20.6 36.9 45.9 45.4 72.9z" fill="#443F80" p-id="5866"></path><path d="M557.9 677.3c-0.5-12.3 2.8-24.6 8.8-34.8 21.4-1.2 41.4-10.6 56.3-26.8 31-33.7 28.8-86.6-4.9-117.6s-86.6-28.8-117.6 4.9l-14.1 15.3c-34.1 37.1-36.2 92.2-7.8 131.4 4.1 5.4 8.7 10.8 13.9 15.6l67.7 62.2-2.3-50.2z" fill="#F9B630" p-id="5867"></path><path d="M560.3 727.6l-67.7-62.2c-5.2-4.8-9.8-10.2-13.9-15.6l139.4-151.6c33.7 31 35.9 83.9 4.9 117.6-14.9 16.2-34.9 25.6-56.3 26.8-6 10.3-9.4 22.5-8.8 34.8l2.4 50.2z" fill="#F9A40D" p-id="5868"></path><path d="M244.5 476c0 29.4 23.8 53.2 53.2 53.2h0.1c29.4 0 53.2-23.9 53.2-53.3s-23.9-53.2-53.3-53.2c-29.4 0.1-53.2 24-53.2 53.3z" fill="#FFD071" p-id="5869"></path><path d="M316.5 311.2a53.2 53.2 0 1 0 106.4 0 53.2 53.2 0 1 0-106.4 0Z" fill="#9DD4A9" p-id="5870"></path><path d="M771.1 469.2c-33.3 0-60.3 27-60.3 60.3s27 60.3 60.3 60.3 60.3-27 60.3-60.3c0.1-33.3-27-60.3-60.3-60.3z" fill="#5E6ACA" p-id="5871"></path><path d="M593.2 232.7c0 29.4-23.8 53.2-53.2 53.2-2 0-4-0.1-6-0.3-26.6-3-47.3-25.5-47.3-52.9s20.7-49.9 47.3-52.9c2-0.2 3.9-0.3 6-0.3 29.4-0.1 53.2 23.8 53.2 53.2z" fill="#F473C3" p-id="5872"></path><path d="M593.2 232.7c0 29.4-23.8 53.2-53.2 53.2-2 0-4-0.1-6-0.3V179.8c2-0.2 3.9-0.3 6-0.3 29.4-0.1 53.2 23.8 53.2 53.2z" fill="#C640A6" p-id="5873"></path><path d="M512 972c-62.1 0-122.3-12.2-179.1-36.2-54.8-23.2-104-56.3-146.2-98.6-42.2-42.2-75.4-91.4-98.6-146.2C64.2 634.3 52 574.1 52 512c0-92.2 27.2-181.1 78.6-257.2C180.7 180.6 250.7 122.9 333 88.2c10.2-4.3 21.9 0.5 26.2 10.6 4.3 10.2-0.5 21.9-10.6 26.2-75.1 31.8-139 84.4-184.8 152.2C116.8 346.6 92 427.8 92 512c0 56.7 11.1 111.7 33 163.5 21.2 50 51.4 94.9 90 133.5s83.5 68.9 133.5 90c51.8 21.9 106.8 33 163.5 33 73.7 0 146.2-19.3 209.6-56 61.6-35.5 113.5-86.5 150.3-147.4 5.7-9.5 18-12.5 27.5-6.8s12.5 18 6.8 27.5C865.9 816 809 871.8 741.6 910.7 672.1 950.8 592.7 972 512 972z" fill="#767DD4" p-id="5874"></path><path d="M902.6 304.1c32-49.4 63-115 28.8-146.4-13.3-12.3-32.1-15.2-55.8-8.6-19.6 5.4-42.6 17.3-68.4 35.3-8.8 6.1-17.9 13-27.2 20.5-31.8-26-67.4-46.5-105.9-60.7-41.1-15.2-84.4-22.9-128.6-22.9-3.8 0-7.7 0.1-11.6 0.2-96.6 2.9-187 42.8-254.5 112.3C211.8 303.2 174.6 395 174.6 492c0 97.1 37.2 188.9 104.9 258.4C347 819.8 437.4 859.7 534 862.7h0.1c3.7 0.1 7.6 0.2 11.4 0.2 35.8 0 41.3-15.9 48.8-38 6.3-18.4 15-43.7 44.7-74.3 19.1-19.6 53.4-29.9 89.7-40.9 83.6-25.2 187.6-56.7 187.6-217.8 0-55-11.8-108-35-157.4 7.7-10.2 14.8-20.4 21.3-30.4z m-89.7-111.6c66.5-46.4 97.4-40.6 111.7-27.5 30.6 28.2-5.9 95.8-30.4 133.6-6.9 10.6-14.5 21.5-22.6 32.5-3.2 4.4-6.6 8.8-10.1 13.3-9.2-24.8-23.9-46.9-42.9-64.4-18.8-17.3-41.9-30.1-67.4-37.3 10.7-9.9 21.4-19.2 31.9-27.7 10.2-8.3 20.3-15.9 29.8-22.5z m-6.4 216.1c-9.6-26.4-24.4-49-44.1-67.2-4.7-4.3-9.6-8.3-14.6-12-16.5-12-35.3-20.8-56.1-26.4 13.1-14.7 27-29.3 41.5-43.4 2.9-2.8 5.9-5.7 9.2-8.8 26.4 6.4 50.3 19 69.4 36.6 19.2 17.7 33.8 40.6 42.3 66.2-15.7 20-31.4 38-47.6 55z m-35.4 65.6c14.8 0 28.8 5.8 39.2 16.3 10.4 10.4 16.1 24.3 16.1 39 0 30.5-24.8 55.3-55.3 55.3-30.5 0-55.3-24.8-55.3-55.3s24.8-55.3 55.3-55.3zM552.9 677.5l1.7 38.1-58.8-54c-4.4-4.1-8.7-8.9-13.3-14.9-27.4-37.9-24.3-90.5 7.5-125l14.1-15.3c14.1-15.3 33.4-24.2 54.3-25.1 6.4-0.3 12.7 0.2 18.8 1.4H577.5c13.8 2.8 26.6 9.3 37.1 19 10.6 9.7 18.1 22 22 35.5v0.2c0 0.1 0 0.1 0.1 0.1 1.7 6 2.7 12.1 3 18.5 0.9 20.9-6.4 40.9-20.5 56.2-13.9 15.1-32.7 24.1-52.9 25.2-1.7 0.1-3.2 1-4 2.5-6.6 11.4-9.9 24.7-9.4 37.6z m-78.3-24.9c0 0.1 0 0.1 0 0 5 6.6 9.7 11.9 14.6 16.3l18.5 17c-11.6 10.4-26.4 16-42.2 16-35.1 0-63.6-28.5-63.6-63.6 0-31.2 22.8-57.6 53-62.7-3.3 26.6 3.1 54.2 19.7 77z m146.9-158.2c-10.7-9.9-23.4-16.8-37.2-20.3 11.2-46.5 54.1-105.7 79.3-137.5 6.8-8.6 13.8-17.1 20.8-25.2 21.4 5.2 40.8 13.9 57.5 26.1 4.7 3.4 9.4 7.2 13.7 11.3 19.7 18.2 34.2 41 43.1 67.9-24.4 24.7-96.9 94.5-153.8 113.3-4.8-13.6-12.7-25.7-23.4-35.6z m57.2-191.9c-0.2 0.2-0.4 0.5-0.5 0.7-6.1 7-12.1 14.3-18.1 21.8-4-7.1-6.1-15.1-6.1-23.5 0-26.6 21.6-48.2 48.2-48.2 6.6 0 13.1 1.3 19.1 3.9-15 14.8-29.3 30-42.6 45.3z m168.8 341.7c-34.8 29.7-80.9 43.7-121.5 55.9-37.6 11.4-73.1 22.1-94 43.5-31.3 32.2-40.4 58.7-47 78-7.6 22.1-10.7 31.2-39.4 31.2-3.7 0-7.5-0.1-11.2-0.2h-0.1c-94-2.9-182-41.7-247.6-109.2-65.8-67.7-102-157-102-251.5 0-94.4 36.2-183.7 102-251.4 65.7-67.6 153.6-106.4 247.7-109.3 3.7-0.1 7.5-0.2 11.2-0.2 43 0 85.1 7.5 125.1 22.3 36.8 13.6 70.9 33 101.4 57.7-11.1 9.2-22.4 19.2-33.6 29.8-0.3 0.2-0.7 0.4-1 0.7-3.1 2.9-5.9 5.5-8.6 8.1-8.2-4.2-17.4-6.5-26.7-6.5-32.1 0-58.2 26.1-58.2 58.2 0 11.5 3.3 22.4 9.5 31.8-53.7 68.3-72.8 112.6-79 138.8-5.4-0.8-10.9-1.1-16.4-0.8-23.6 1-45.4 11-61.3 28.3l-14.1 15.3c-13.4 14.6-22.1 32.1-26.2 50.4-36.6 4.4-64.8 35.8-64.8 73.1 0 40.6 33 73.6 73.6 73.6 18.6 0 36-6.8 49.6-19.2l41.8 38.4c0.9 0.9 2.2 1.3 3.4 1.3 0.7 0 1.4-0.2 2.1-0.5 1.8-0.9 3-2.7 2.9-4.8l-2.3-50.2c-0.4-10.2 2-20.6 6.9-29.8 21.8-1.9 41.9-11.9 56.9-28.2 15.9-17.3 24.1-39.8 23.1-63.4-0.2-5.5-1-11-2.2-16.2 20-6.6 41.7-19 62.6-33.6-2.9 7.3-4.5 15.3-4.5 23.7 0 36 29.3 65.3 65.3 65.3s65.3-29.3 65.3-65.3c0.1-17.4-6.7-33.8-19-46.1-12.4-12.4-28.8-19.2-46.3-19.2-3.1 0-6.1 0.2-9.1 0.6 20.7-18.1 37.3-34.6 46-43.4 19-19.3 37-39.9 55.2-63.1l0.6-0.6c3.7-4.7 7.4-9.4 10.9-14 21.1 46.7 31.8 96.5 31.8 148.3 0.1 68.7-19.2 118.5-58.8 152.4z" fill="#FFFFFF" p-id="5875"></path><path d="M297.7 417.7c-32.1 0.1-58.2 26.3-58.2 58.3 0 32.1 26.1 58.2 58.3 58.2 32.1 0 58.2-26.2 58.2-58.3 0-32.1-26.2-58.2-58.3-58.2z m0 106.5c-26.6 0-48.2-21.6-48.2-48.2 0-26.5 21.6-48.2 48.2-48.3 26.6 0 48.3 21.6 48.3 48.2s-21.6 48.3-48.3 48.3zM427.9 311.2c0-32.1-26.1-58.2-58.2-58.2s-58.2 26.1-58.2 58.2 26.1 58.2 58.2 58.2 58.2-26.1 58.2-58.2z m-58.2 48.2c-26.6 0-48.2-21.6-48.2-48.2s21.6-48.2 48.2-48.2 48.2 21.6 48.2 48.2-21.6 48.2-48.2 48.2zM533.5 290.6c2.2 0.2 4.3 0.3 6.5 0.3 32.1 0 58.2-26.1 58.2-58.2 0-15.6-6.1-30.3-17.1-41.3-10.9-10.9-25.5-16.9-40.9-16.9-2.3 0-4.4 0.1-6.8 0.3-29.5 3.3-51.7 28.2-51.7 57.9s22.2 54.5 51.8 57.9z m1-105.8c1.9-0.2 3.8-0.3 5.7-0.3 12.8 0 24.8 5 33.8 14 9.2 9.1 14.2 21.3 14.2 34.2 0 26.6-21.6 48.2-48.2 48.2-1.8 0-3.7-0.1-5.4-0.3-24.4-2.8-42.9-23.4-42.9-47.9s18.4-45.2 42.8-47.9z" fill="#FFFFFF" p-id="5876"></path></svg>