<?xml version="1.0" standalone="no"?><!DOCTYPE svg PUBLIC "-//W3C//DTD SVG 1.1//EN" "http://www.w3.org/Graphics/SVG/1.1/DTD/svg11.dtd"><svg t="1679211285655" class="icon" viewBox="0 0 1024 1024" version="1.1" xmlns="http://www.w3.org/2000/svg" p-id="8035" xmlns:xlink="http://www.w3.org/1999/xlink" width="400" height="400"><path d="M899.157333 697.909333c0 82.72-64.138667 149.834667-143.306666 149.834667A145.066667 145.066667 0 0 1 614.933333 724.416h-224a145.162667 145.162667 0 0 1-140.917333 123.328c-76.277333 0-138.528-62.410667-142.933333-141.002667h-0.490667V653.866667a113.738667 113.738667 0 0 1 19.562667-64l64.714666-94.688h-23.2a20.896 20.896 0 0 1-15.36-34.133334 49.493333 49.493333 0 0 1 38.634667-18.741333h219.178667a51.808 51.808 0 0 1 50.602666 52.832L448.096 517.333333l-9.824 17.173334-7.754667 13.536c-8.917333 15.605333 8.341333 31.370667 25.76 31.370666h69.92c27.573333 0 92.618667-10.069333 116.565334-122.005333l12.384-125.152a47.882667 47.882667 0 0 0-42.602667-66.037333h-25.258667a26.442667 26.442667 0 0 1 0-52.832h118.048a60.405333 60.405333 0 0 1 59.018667 61.664c0 2.805333-0.416 9.984-0.416 9.984a18.133333 18.133333 0 0 0-1.066667 3.637333 62.176 62.176 0 0 1-5.610666 15.52 29.056 29.056 0 0 0-2.805334 7.925333l-29.866666 180.618667a46.357333 46.357333 0 0 0 28.234666 51.093333l10.890667 4.789334a146.922667 146.922667 0 0 1 135.466667 149.333333zM249.973333 618.666667a79.413333 79.413333 0 1 0 75.861334 79.328A77.621333 77.621333 0 0 0 249.973333 618.666667z m505.877334 0a79.413333 79.413333 0 1 0 75.861333 79.328A77.610667 77.610667 0 0 0 755.850667 618.666667z m0 105.749333a26.442667 26.442667 0 1 1 25.258666-26.421333 25.898667 25.898667 0 0 1-25.258666 26.421333z m-505.877334 0a26.442667 26.442667 0 1 1 25.258667-26.421333 25.898667 25.898667 0 0 1-25.258667 26.421333zM153.312 408.533333v-97.706666c0-32.693333 34.592-70.997333 65.877333-70.997334h154.666667c35.829333 0 59.104 33.6 59.104 70.997334v97.706666z m0 0" fill="#1C87FF" p-id="8036"></path></svg>