<?xml version="1.0" standalone="no"?><!DOCTYPE svg PUBLIC "-//W3C//DTD SVG 1.1//EN" "http://www.w3.org/Graphics/SVG/1.1/DTD/svg11.dtd"><svg t="1674188473291" class="icon" viewBox="0 0 1024 1024" version="1.1" xmlns="http://www.w3.org/2000/svg" p-id="7916" xmlns:xlink="http://www.w3.org/1999/xlink" width="200" height="200"><path d="M573.686519 959.317333l0.151703 7.793778s-5.30963-1.194667-14.430815-3.678815c-9.121185 2.484148-14.430815 3.678815-14.430814 3.678815l0.151703-7.793778C470.319407 936.846222 271.872 862.264889 227.555556 693.551407v-388.74074S513.573926 288.749037 559.407407 189.62963c45.833481 99.119407 331.851852 115.181037 331.851852 115.181037v388.74074c-44.316444 168.713481-242.763852 243.294815-317.57274 265.765926z" fill="#0099FF" opacity=".2" p-id="7917"></path><path d="M530.773333 1013.741037L530.962963 1024s-6.97837-1.573926-18.962963-4.854519c-11.984593 3.280593-18.962963 4.854519-18.962963 4.854519l0.18963-10.258963C394.922667 984.139852 134.106074 885.911704 75.851852 663.703704V151.703704s375.902815-21.143704 436.148148-151.703704c60.245333 130.56 436.148148 151.703704 436.148148 151.703704v512c-58.254222 222.208-319.070815 320.436148-417.374815 350.037333zM891.259259 218.415407S560.469333 201.197037 512 94.814815c-48.469333 106.382222-379.259259 123.600593-379.259259 123.600592v417.185186c46.857481 181.077333 275.607704 280.064 354.683259 304.184888l-0.151704 8.362667s5.613037-1.289481 15.246223-3.944296c9.633185 2.654815 15.246222 3.944296 15.246222 3.944296l-0.151704-8.362667c79.075556-24.120889 326.788741-123.107556 373.646222-304.184888v-417.185186zM474.548148 649.53837l-40.087704-40.087703-0.13274-0.132741-120.680297-120.680296 53.62726-53.646223 120.680296 120.680297 187.733333-187.714371 53.62726 53.62726L487.954963 662.945185l-13.406815-13.406815z" fill="#0099FF" p-id="7918"></path></svg>