<?xml version="1.0" standalone="no"?><!DOCTYPE svg PUBLIC "-//W3C//DTD SVG 1.1//EN" "http://www.w3.org/Graphics/SVG/1.1/DTD/svg11.dtd"><svg t="1678527605325" class="icon" viewBox="0 0 1024 1024" version="1.1" xmlns="http://www.w3.org/2000/svg" p-id="28395" xmlns:xlink="http://www.w3.org/1999/xlink" width="300" height="300"><path d="M832 699.08a154.9 154.9 0 0 1-3.56 79.54q-2.22 7.11-5.07 13.88h2.2a31.36 31.36 0 0 0 31.36-31.36v-31.36a31.37 31.37 0 0 0-24.93-30.7z m-6.42-282.88h-31.36a125.43 125.43 0 0 0-125.43-125.43h-31.35v-65.4a47 47 0 1 0-31.36 0v65.4H417.93v-65.4a47 47 0 1 0-31.36 0v65.4h-31.36A125.43 125.43 0 0 0 229.78 416.2h-31.36a31.36 31.36 0 0 0-31.36 31.36V573a31.36 31.36 0 0 0 31.36 31.36h31.36V654q20-19.32 48.86-30.63c7.49-2.93 11-5.73 11.18-14.57 0.79-37.75 17.88-71.5 44.21-95.58a62.72 62.72 0 0 1 52.54-97h250.87a62.7 62.7 0 0 1 55.84 34.16c40.35 31 63.39 79.4 61 133.26-0.38 8.47 1.82 13 9.11 17.75a162.22 162.22 0 0 1 30.86 25.86v-22.9h31.36A31.36 31.36 0 0 0 856.94 573V447.56a31.36 31.36 0 0 0-31.36-31.36zM193.5 714.64a163.71 163.71 0 0 1 5.95-16.22h-1a31.36 31.36 0 0 0-31.36 31.36v31.36a31.37 31.37 0 0 0 27.62 31.14q-2.34-7.28-4-15a37.23 37.23 0 0 0-2.25-5.62v-39.42c1.65-5.87 3.24-11.77 5.04-17.6z" fill="#2983FD" p-id="28396"></path><path d="M188.41 732.24c1.7-5.87 3.29-11.76 5.09-17.6 13.5-43.64 41.74-74.37 85.14-91.32 7.49-2.92 11-5.73 11.18-14.56 1.7-81.66 79.7-144.61 162.36-131.4 7.16 1.15 12.08 0.71 17.48-5.33 47-52.49 119.13-69.65 183.53-44.28 64.6 25.46 104.21 86.1 101.06 155.88-0.38 8.47 1.82 13 9.11 17.76 60.08 38.88 86 110.07 65.09 177.23C807.85 844.77 745.24 890 674.05 890H332.92c-71.65 0-127.4-44.2-142.26-112.7a36.7 36.7 0 0 0-2.25-5.61z" fill="#B0D4FF" p-id="28397"></path><path d="M188.41 732.24c1.7-5.87 3.29-11.76 5.09-17.6 13.5-43.64 41.74-74.37 85.14-91.32 7.49-2.92 11-5.73 11.18-14.56 1.7-81.66 79.7-144.61 162.36-131.4 7.16 1.15 12.08 0.71 17.48-5.33 47-52.49 119.13-69.65 183.53-44.28 64.6 25.46 104.21 86.1 101.06 155.88-0.38 8.47 1.82 13 9.11 17.76 60.08 38.88 86 110.07 65.09 177.23C807.85 844.77 745.24 890 674.05 890H332.92c-71.65 0-127.4-44.2-142.26-112.7a36.7 36.7 0 0 0-2.25-5.61z" fill="#B3F4FF" p-id="28398"></path><path d="M188.41 732.24c1.7-5.87 3.29-11.76 5.09-17.6 13.5-43.64 41.74-74.37 85.14-91.32 7.49-2.92 11-5.73 11.18-14.56 1.7-81.66 79.7-144.61 162.36-131.4 7.16 1.15 12.08 0.71 17.48-5.33 47-52.49 119.13-69.65 183.53-44.28 64.6 25.46 104.21 86.1 101.06 155.88-0.38 8.47 1.82 13 9.11 17.76 60.08 38.88 86 110.07 65.09 177.23C807.85 844.77 745.24 890 674.05 890H332.92c-71.65 0-127.4-44.2-142.26-112.7a36.7 36.7 0 0 0-2.25-5.61z" fill="#B3F4FF" p-id="28399"></path><path d="M520.07 891H332.92c-72.05 0-128.28-44.55-143.24-113.49a17.46 17.46 0 0 0-1.38-3.6c-0.28-0.61-0.57-1.22-0.82-1.84l-0.07-0.19v-39.93q0.84-2.91 1.66-5.84c1.1-3.87 2.23-7.86 3.44-11.77 13.65-44.14 42.49-75.07 85.73-92 7.28-2.84 10.35-5.37 10.54-13.66 0.8-38.35 18.81-75 49.42-100.57a142.87 142.87 0 0 1 114.1-31.79c7 1.13 11.5 0.67 16.58-5 47.13-52.68 119.6-70.17 184.63-44.54 31.94 12.59 58.37 33.93 76.41 61.71s26.84 60.75 25.29 95.15c-0.37 8.29 1.73 12.39 8.65 16.87 60.24 39 86.57 110.67 65.5 178.37a156.8 156.8 0 0 1-58.59 81A164.35 164.35 0 0 1 674.05 891zM189.41 771.5c0.22 0.53 0.46 1 0.71 1.58a20.44 20.44 0 0 1 1.52 4c14.75 68 70.21 111.92 141.28 111.92h341.13c71.17 0 132.84-44.51 153.44-110.69 20.8-66.83-5.2-137.6-64.67-176.09-7.46-4.83-10-9.71-9.56-18.64 3.09-68.83-36.33-129.64-100.44-154.91s-135.84-8-182.41 44c-5.66 6.33-10.83 6.86-18.39 5.64a140.94 140.94 0 0 0-112.5 31.35c-30.16 25.19-47.92 61.31-48.7 99.09-0.21 9.32-4 12.41-11.81 15.47-42.64 16.66-71.09 47.17-84.55 90.69-1.2 3.88-2.33 7.87-3.42 11.72q-0.81 2.87-1.63 5.72z" fill="#F8FEFF" p-id="28400"></path><path d="M192.59 785.2h633.64c0.78-2.17 1.53-4.36 2.22-6.58a155.09 155.09 0 0 0 4.46-75.12h-44.6v-82.28a163.78 163.78 0 0 0-24.95-19.84c-7.29-4.71-9.49-9.28-9.11-17.75 2.08-46.14-14.54-88.26-44.71-118.88 10.85 71.73-59.47 86-59.47 86s-263.85 3.55-285.63 0-40.59-27-40.71-27.12c-20.41 23-33.23 52.55-33.91 85.11-0.2 8.84-3.69 11.64-11.18 14.57a147.87 147.87 0 0 0-44.12 26.3v53.89H197.4c-1.41 3.62-2.72 7.32-3.9 11.14-1.8 5.83-3.39 11.73-5.09 17.6v39.45a37.23 37.23 0 0 1 2.25 5.62q0.87 4.01 1.93 7.89z" fill="#52A5FF" p-id="28401"></path><path d="M436.17 484c7.16 1.16 12.07 0.72 17.48-5.32l0.92-1c-0.77-0.08-1.56-0.19-2.39-0.32a140.66 140.66 0 0 0-84.27 12.74 140.21 140.21 0 0 1 68.26-6.1zM763.36 601.39c-7.29-4.72-9.49-9.29-9.11-17.76 3.15-69.78-36.46-130.42-101.06-155.88a162.92 162.92 0 0 0-130.82 4.52 163 163 0 0 1 114.8 2.15c64.61 25.46 104.21 86.1 101.07 155.88-0.38 8.47 1.81 13 9.11 17.75 60.08 38.89 86 110.08 65.09 177.24-13.25 42.53-43.86 76.4-83 95.17 46.66-16.59 84-53.66 99-101.84 20.9-67.16-5-138.35-65.08-177.23z" fill="#FFFFFF" p-id="28402"></path></svg>