<?xml version="1.0" standalone="no"?><!DOCTYPE svg PUBLIC "-//W3C//DTD SVG 1.1//EN" "http://www.w3.org/Graphics/SVG/1.1/DTD/svg11.dtd"><svg t="1679210216937" class="icon" viewBox="0 0 1024 1024" version="1.1" xmlns="http://www.w3.org/2000/svg" p-id="4044" width="300" height="300" xmlns:xlink="http://www.w3.org/1999/xlink"><path d="M125 535.7v82.8h223.8v-81.2c0-0.1-225.4-1.6-223.8-1.6zM671.5 535.7v82.8h223.8v-81.2c0-0.1-225.4-1.6-223.8-1.6z" fill="#F2CA69" p-id="4045"></path><path d="M508.3 134.4l0.8 93.7 120.2-50z" fill="#EEB1B3" p-id="4046"></path><path d="M170.2 624.7l1.6 271.7 184.3 2.6-4.7-272.8zM671.5 624.7l1.5 271.7 184.3 2.6-4.7-272.8z" fill="#D1E0E4" p-id="4047"></path><path d="M506 307.7l167.6 80.2-3.2 510-314.3 1.1-3.2-508z" fill="#D1E0E4" p-id="4048"></path><path d="M513.2 443c-41.9 0-76 34.1-76 76s34.1 76 76 76 76-34.1 76-76-34.1-76-76-76z" fill="#F2CA69" p-id="4049" data-spm-anchor-id="a313x.7781069.0.i0"></path><path d="M528.6 584.7s64.5-77-3.1-130.1l11.5-11.5 48.9 44.8-9.4 71.8-47.9 25z" fill="#EDAB38" p-id="4050"></path><path d="M312.3 626.2v269.6h36.4V626.2c0.1 0-34.7-2-36.4 0zM813.6 626.2v269.6H850V626.2s-34.8-2-36.4 0z" fill="#B0C7CE" p-id="4051"></path><path d="M315.1 533.3v91.5h36.4v-91.5s-34.7-0.7-36.4 0zM856.6 533.3v91.5H893v-91.5c0.1 0-34.7-0.7-36.4 0z" fill="#EDAB38" p-id="4052"></path><path d="M630.9 367.8v528h36.4V379.7s-34.8-15.9-36.4-11.9z" fill="#B0C7CE" p-id="4053"></path><path d="M453.9 762.6v131.2h116.6V764.7s-119.7-2.1-116.6-2.1z" fill="#EEB1B3" p-id="4054"></path><path d="M896.3 520.1H683.7V405.8l58.4 27.7c6.2 3 13.7 0.3 16.6-5.9 3-6.2 0.3-13.7-5.9-16.6L518.4 299.8v-58.9c0.9-0.2 1.8-0.4 2.7-0.8l120.8-50c4.7-1.9 7.7-6.5 7.7-11.5 0-5.1-3-9.6-7.7-11.5L510.7 113c-3.9-1.6-8.2-1.2-11.7 1.2-3.5 2.3-5.5 6.2-5.5 10.4V300L260.2 418.2c-6.2 3.1-8.6 10.6-5.5 16.8 2.2 4.3 6.6 6.8 11.2 6.8 1.9 0 3.8-0.4 5.6-1.4l68.9-34.9V520H127.7c-6.9 0-12.5 5.6-12.5 12.5v89c0 6.9 5.6 12.5 12.5 12.5h30.6v265.5c0 6.9 5.6 12.5 12.5 12.5H854c6.9 0 12.5-5.6 12.5-12.5V634h29.9c6.9 0 12.5-5.6 12.5-12.5v-89c-0.1-6.8-5.7-12.4-12.6-12.4zM518.4 143.2l86 35.5-86 35.6v-71.1zM140.2 545.1h200.3v64H140.2v-64zM183.3 887V634h157.2v253H183.3z m374.7 0h-91.6V774.1H558V887z m25 0V761.6c0-6.9-5.6-12.5-12.5-12.5H453.9c-6.9 0-12.5 5.6-12.5 12.5V887h-76V392.9l140.7-71.3L658.7 394v493H583z m258.5 0H683.7V634h157.8v253z m42.3-278H683.7v-64h200.1v64z" fill="#3A4D51" p-id="4055"></path><path d="M254 705.4h25v58.3h-25zM254 803.2h25v58.3h-25zM749.5 705.4h25v58.3h-25zM749.5 803.2h25v58.3h-25zM512.2 428.5c-49.4 0-89.5 40.2-89.5 89.5s40.2 89.5 89.5 89.5 89.5-40.2 89.5-89.5-40.1-89.5-89.5-89.5z m0 154c-35.6 0-64.5-29-64.5-64.5s29-64.5 64.5-64.5c35.6 0 64.5 29 64.5 64.5s-28.9 64.5-64.5 64.5z" fill="#3A4D51" p-id="4056"></path></svg>